<?xml version="1.0" standalone="no"?>
<svg xmlns="http://www.w3.org/2000/svg" width="540" height="540"><defs><clipPath id="_5b6n64vy-clip-path-dot-color"><rect x="24" y="132" width="12" height="12" transform="rotate(0,30,138)"/><rect x="24" y="144" width="12" height="12" transform="rotate(0,30,150)"/><rect x="24" y="168" width="12" height="12" transform="rotate(0,30,174)"/><rect x="24" y="192" width="12" height="12" transform="rotate(0,30,198)"/><rect x="24" y="204" width="12" height="12" transform="rotate(0,30,210)"/><rect x="24" y="240" width="12" height="12" transform="rotate(0,30,246)"/><rect x="24" y="252" width="12" height="12" transform="rotate(0,30,258)"/><rect x="24" y="360" width="12" height="12" transform="rotate(0,30,366)"/><rect x="24" y="372" width="12" height="12" transform="rotate(0,30,378)"/><rect x="24" y="384" width="12" height="12" transform="rotate(0,30,390)"/><rect x="36" y="168" width="12" height="12" transform="rotate(0,42,174)"/><rect x="36" y="228" width="12" height="12" transform="rotate(0,42,234)"/><rect x="36" y="264" width="12" height="12" transform="rotate(0,42,270)"/><rect x="36" y="276" width="12" height="12" transform="rotate(0,42,282)"/><rect x="36" y="300" width="12" height="12" transform="rotate(0,42,306)"/><rect x="36" y="312" width="12" height="12" transform="rotate(0,42,318)"/><rect x="36" y="384" width="12" height="12" transform="rotate(0,42,390)"/><rect x="36" y="396" width="12" height="12" transform="rotate(0,42,402)"/><rect x="36" y="408" width="12" height="12" transform="rotate(0,42,414)"/><rect x="48" y="120" width="12" height="12" transform="rotate(0,54,126)"/><rect x="48" y="132" width="12" height="12" transform="rotate(0,54,138)"/><rect x="48" y="156" width="12" height="12" transform="rotate(0,54,162)"/><rect x="48" y="168" width="12" height="12" transform="rotate(0,54,174)"/><rect x="48" y="180" width="12" height="12" transform="rotate(0,54,186)"/><rect x="48" y="192" width="12" height="12" transform="rotate(0,54,198)"/><rect x="48" y="204" width="12" height="12" transform="rotate(0,54,210)"/><rect x="48" y="216" width="12" height="12" transform="rotate(0,54,222)"/><rect x="48" y="228" width="12" height="12" transform="rotate(0,54,234)"/><rect x="48" y="240" width="12" height="12" transform="rotate(0,54,246)"/><rect x="48" y="276" width="12" height="12" transform="rotate(0,54,282)"/><rect x="48" y="348" width="12" height="12" transform="rotate(0,54,354)"/><rect x="48" y="360" width="12" height="12" transform="rotate(0,54,366)"/><rect x="48" y="396" width="12" height="12" transform="rotate(0,54,402)"/><rect x="60" y="120" width="12" height="12" transform="rotate(0,66,126)"/><rect x="60" y="132" width="12" height="12" transform="rotate(0,66,138)"/><rect x="60" y="156" width="12" height="12" transform="rotate(0,66,162)"/><rect x="60" y="168" width="12" height="12" transform="rotate(0,66,174)"/><rect x="60" y="192" width="12" height="12" transform="rotate(0,66,198)"/><rect x="60" y="216" width="12" height="12" transform="rotate(0,66,222)"/><rect x="60" y="240" width="12" height="12" transform="rotate(0,66,246)"/><rect x="60" y="252" width="12" height="12" transform="rotate(0,66,258)"/><rect x="60" y="264" width="12" height="12" transform="rotate(0,66,270)"/><rect x="60" y="276" width="12" height="12" transform="rotate(0,66,282)"/><rect x="60" y="300" width="12" height="12" transform="rotate(0,66,306)"/><rect x="60" y="348" width="12" height="12" transform="rotate(0,66,354)"/><rect x="60" y="384" width="12" height="12" transform="rotate(0,66,390)"/><rect x="60" y="396" width="12" height="12" transform="rotate(0,66,402)"/><rect x="60" y="408" width="12" height="12" transform="rotate(0,66,414)"/><rect x="72" y="168" width="12" height="12" transform="rotate(0,78,174)"/><rect x="72" y="180" width="12" height="12" transform="rotate(0,78,186)"/><rect x="72" y="228" width="12" height="12" transform="rotate(0,78,234)"/><rect x="72" y="264" width="12" height="12" transform="rotate(0,78,270)"/><rect x="72" y="288" width="12" height="12" transform="rotate(0,78,294)"/><rect x="72" y="324" width="12" height="12" transform="rotate(0,78,330)"/><rect x="72" y="336" width="12" height="12" transform="rotate(0,78,342)"/><rect x="72" y="372" width="12" height="12" transform="rotate(0,78,378)"/><rect x="72" y="396" width="12" height="12" transform="rotate(0,78,402)"/><rect x="84" y="132" width="12" height="12" transform="rotate(0,90,138)"/><rect x="84" y="144" width="12" height="12" transform="rotate(0,90,150)"/><rect x="84" y="156" width="12" height="12" transform="rotate(0,90,162)"/><rect x="84" y="180" width="12" height="12" transform="rotate(0,90,186)"/><rect x="84" y="216" width="12" height="12" transform="rotate(0,90,222)"/><rect x="84" y="228" width="12" height="12" transform="rotate(0,90,234)"/><rect x="84" y="252" width="12" height="12" transform="rotate(0,90,258)"/><rect x="84" y="264" width="12" height="12" transform="rotate(0,90,270)"/><rect x="84" y="276" width="12" height="12" transform="rotate(0,90,282)"/><rect x="84" y="324" width="12" height="12" transform="rotate(0,90,330)"/><rect x="84" y="360" width="12" height="12" transform="rotate(0,90,366)"/><rect x="84" y="372" width="12" height="12" transform="rotate(0,90,378)"/><rect x="84" y="384" width="12" height="12" transform="rotate(0,90,390)"/><rect x="96" y="120" width="12" height="12" transform="rotate(0,102,126)"/><rect x="96" y="144" width="12" height="12" transform="rotate(0,102,150)"/><rect x="96" y="168" width="12" height="12" transform="rotate(0,102,174)"/><rect x="96" y="192" width="12" height="12" transform="rotate(0,102,198)"/><rect x="96" y="216" width="12" height="12" transform="rotate(0,102,222)"/><rect x="96" y="240" width="12" height="12" transform="rotate(0,102,246)"/><rect x="96" y="264" width="12" height="12" transform="rotate(0,102,270)"/><rect x="96" y="288" width="12" height="12" transform="rotate(0,102,294)"/><rect x="96" y="312" width="12" height="12" transform="rotate(0,102,318)"/><rect x="96" y="336" width="12" height="12" transform="rotate(0,102,342)"/><rect x="96" y="360" width="12" height="12" transform="rotate(0,102,366)"/><rect x="96" y="384" width="12" height="12" transform="rotate(0,102,390)"/><rect x="96" y="408" width="12" height="12" transform="rotate(0,102,414)"/><rect x="108" y="156" width="12" height="12" transform="rotate(0,114,162)"/><rect x="108" y="168" width="12" height="12" transform="rotate(0,114,174)"/><rect x="108" y="192" width="12" height="12" transform="rotate(0,114,198)"/><rect x="108" y="240" width="12" height="12" transform="rotate(0,114,246)"/><rect x="108" y="264" width="12" height="12" transform="rotate(0,114,270)"/><rect x="108" y="276" width="12" height="12" transform="rotate(0,114,282)"/><rect x="108" y="312" width="12" height="12" transform="rotate(0,114,318)"/><rect x="108" y="324" width="12" height="12" transform="rotate(0,114,330)"/><rect x="108" y="360" width="12" height="12" transform="rotate(0,114,366)"/><rect x="120" y="60" width="12" height="12" transform="rotate(0,126,66)"/><rect x="120" y="72" width="12" height="12" transform="rotate(0,126,78)"/><rect x="120" y="96" width="12" height="12" transform="rotate(0,126,102)"/><rect x="120" y="108" width="12" height="12" transform="rotate(0,126,114)"/><rect x="120" y="132" width="12" height="12" transform="rotate(0,126,138)"/><rect x="120" y="168" width="12" height="12" transform="rotate(0,126,174)"/><rect x="120" y="204" width="12" height="12" transform="rotate(0,126,210)"/><rect x="120" y="216" width="12" height="12" transform="rotate(0,126,222)"/><rect x="120" y="228" width="12" height="12" transform="rotate(0,126,234)"/><rect x="120" y="240" width="12" height="12" transform="rotate(0,126,246)"/><rect x="120" y="252" width="12" height="12" transform="rotate(0,126,258)"/><rect x="120" y="288" width="12" height="12" transform="rotate(0,126,294)"/><rect x="120" y="312" width="12" height="12" transform="rotate(0,126,318)"/><rect x="120" y="336" width="12" height="12" transform="rotate(0,126,342)"/><rect x="120" y="348" width="12" height="12" transform="rotate(0,126,354)"/><rect x="120" y="360" width="12" height="12" transform="rotate(0,126,366)"/><rect x="120" y="372" width="12" height="12" transform="rotate(0,126,378)"/><rect x="120" y="396" width="12" height="12" transform="rotate(0,126,402)"/><rect x="120" y="408" width="12" height="12" transform="rotate(0,126,414)"/><rect x="120" y="468" width="12" height="12" transform="rotate(0,126,474)"/><rect x="120" y="480" width="12" height="12" transform="rotate(0,126,486)"/><rect x="132" y="24" width="12" height="12" transform="rotate(0,138,30)"/><rect x="132" y="60" width="12" height="12" transform="rotate(0,138,66)"/><rect x="132" y="72" width="12" height="12" transform="rotate(0,138,78)"/><rect x="132" y="84" width="12" height="12" transform="rotate(0,138,90)"/><rect x="132" y="108" width="12" height="12" transform="rotate(0,138,114)"/><rect x="132" y="180" width="12" height="12" transform="rotate(0,138,186)"/><rect x="132" y="192" width="12" height="12" transform="rotate(0,138,198)"/><rect x="132" y="204" width="12" height="12" transform="rotate(0,138,210)"/><rect x="132" y="228" width="12" height="12" transform="rotate(0,138,234)"/><rect x="132" y="240" width="12" height="12" transform="rotate(0,138,246)"/><rect x="132" y="252" width="12" height="12" transform="rotate(0,138,258)"/><rect x="132" y="264" width="12" height="12" transform="rotate(0,138,270)"/><rect x="132" y="312" width="12" height="12" transform="rotate(0,138,318)"/><rect x="132" y="324" width="12" height="12" transform="rotate(0,138,330)"/><rect x="132" y="348" width="12" height="12" transform="rotate(0,138,354)"/><rect x="132" y="372" width="12" height="12" transform="rotate(0,138,378)"/><rect x="132" y="396" width="12" height="12" transform="rotate(0,138,402)"/><rect x="132" y="444" width="12" height="12" transform="rotate(0,138,450)"/><rect x="132" y="456" width="12" height="12" transform="rotate(0,138,462)"/><rect x="132" y="504" width="12" height="12" transform="rotate(0,138,510)"/><rect x="144" y="72" width="12" height="12" transform="rotate(0,150,78)"/><rect x="144" y="96" width="12" height="12" transform="rotate(0,150,102)"/><rect x="144" y="144" width="12" height="12" transform="rotate(0,150,150)"/><rect x="144" y="156" width="12" height="12" transform="rotate(0,150,162)"/><rect x="144" y="180" width="12" height="12" transform="rotate(0,150,186)"/><rect x="144" y="204" width="12" height="12" transform="rotate(0,150,210)"/><rect x="144" y="216" width="12" height="12" transform="rotate(0,150,222)"/><rect x="144" y="228" width="12" height="12" transform="rotate(0,150,234)"/><rect x="144" y="252" width="12" height="12" transform="rotate(0,150,258)"/><rect x="144" y="264" width="12" height="12" transform="rotate(0,150,270)"/><rect x="144" y="276" width="12" height="12" transform="rotate(0,150,282)"/><rect x="144" y="300" width="12" height="12" transform="rotate(0,150,306)"/><rect x="144" y="336" width="12" height="12" transform="rotate(0,150,342)"/><rect x="144" y="348" width="12" height="12" transform="rotate(0,150,354)"/><rect x="144" y="384" width="12" height="12" transform="rotate(0,150,390)"/><rect x="144" y="420" width="12" height="12" transform="rotate(0,150,426)"/><rect x="144" y="444" width="12" height="12" transform="rotate(0,150,450)"/><rect x="144" y="480" width="12" height="12" transform="rotate(0,150,486)"/><rect x="144" y="492" width="12" height="12" transform="rotate(0,150,498)"/><rect x="156" y="24" width="12" height="12" transform="rotate(0,162,30)"/><rect x="156" y="36" width="12" height="12" transform="rotate(0,162,42)"/><rect x="156" y="48" width="12" height="12" transform="rotate(0,162,54)"/><rect x="156" y="84" width="12" height="12" transform="rotate(0,162,90)"/><rect x="156" y="108" width="12" height="12" transform="rotate(0,162,114)"/><rect x="156" y="120" width="12" height="12" transform="rotate(0,162,126)"/><rect x="156" y="132" width="12" height="12" transform="rotate(0,162,138)"/><rect x="156" y="144" width="12" height="12" transform="rotate(0,162,150)"/><rect x="156" y="168" width="12" height="12" transform="rotate(0,162,174)"/><rect x="156" y="192" width="12" height="12" transform="rotate(0,162,198)"/><rect x="156" y="204" width="12" height="12" transform="rotate(0,162,210)"/><rect x="156" y="324" width="12" height="12" transform="rotate(0,162,330)"/><rect x="156" y="336" width="12" height="12" transform="rotate(0,162,342)"/><rect x="156" y="372" width="12" height="12" transform="rotate(0,162,378)"/><rect x="156" y="396" width="12" height="12" transform="rotate(0,162,402)"/><rect x="156" y="408" width="12" height="12" transform="rotate(0,162,414)"/><rect x="156" y="420" width="12" height="12" transform="rotate(0,162,426)"/><rect x="156" y="432" width="12" height="12" transform="rotate(0,162,438)"/><rect x="156" y="444" width="12" height="12" transform="rotate(0,162,450)"/><rect x="156" y="468" width="12" height="12" transform="rotate(0,162,474)"/><rect x="168" y="36" width="12" height="12" transform="rotate(0,174,42)"/><rect x="168" y="48" width="12" height="12" transform="rotate(0,174,54)"/><rect x="168" y="60" width="12" height="12" transform="rotate(0,174,66)"/><rect x="168" y="72" width="12" height="12" transform="rotate(0,174,78)"/><rect x="168" y="84" width="12" height="12" transform="rotate(0,174,90)"/><rect x="168" y="96" width="12" height="12" transform="rotate(0,174,102)"/><rect x="168" y="120" width="12" height="12" transform="rotate(0,174,126)"/><rect x="168" y="132" width="12" height="12" transform="rotate(0,174,138)"/><rect x="168" y="156" width="12" height="12" transform="rotate(0,174,162)"/><rect x="168" y="168" width="12" height="12" transform="rotate(0,174,174)"/><rect x="168" y="192" width="12" height="12" transform="rotate(0,174,198)"/><rect x="168" y="204" width="12" height="12" transform="rotate(0,174,210)"/><rect x="168" y="240" width="12" height="12" transform="rotate(0,174,246)"/><rect x="168" y="288" width="12" height="12" transform="rotate(0,174,294)"/><rect x="168" y="300" width="12" height="12" transform="rotate(0,174,306)"/><rect x="168" y="324" width="12" height="12" transform="rotate(0,174,330)"/><rect x="168" y="408" width="12" height="12" transform="rotate(0,174,414)"/><rect x="168" y="420" width="12" height="12" transform="rotate(0,174,426)"/><rect x="168" y="432" width="12" height="12" transform="rotate(0,174,438)"/><rect x="168" y="444" width="12" height="12" transform="rotate(0,174,450)"/><rect x="168" y="492" width="12" height="12" transform="rotate(0,174,498)"/><rect x="168" y="504" width="12" height="12" transform="rotate(0,174,510)"/><rect x="180" y="48" width="12" height="12" transform="rotate(0,186,54)"/><rect x="180" y="72" width="12" height="12" transform="rotate(0,186,78)"/><rect x="180" y="120" width="12" height="12" transform="rotate(0,186,126)"/><rect x="180" y="144" width="12" height="12" transform="rotate(0,186,150)"/><rect x="180" y="192" width="12" height="12" transform="rotate(0,186,198)"/><rect x="180" y="240" width="12" height="12" transform="rotate(0,186,246)"/><rect x="180" y="276" width="12" height="12" transform="rotate(0,186,282)"/><rect x="180" y="312" width="12" height="12" transform="rotate(0,186,318)"/><rect x="180" y="372" width="12" height="12" transform="rotate(0,186,378)"/><rect x="180" y="396" width="12" height="12" transform="rotate(0,186,402)"/><rect x="180" y="420" width="12" height="12" transform="rotate(0,186,426)"/><rect x="180" y="444" width="12" height="12" transform="rotate(0,186,450)"/><rect x="180" y="456" width="12" height="12" transform="rotate(0,186,462)"/><rect x="180" y="468" width="12" height="12" transform="rotate(0,186,474)"/><rect x="180" y="480" width="12" height="12" transform="rotate(0,186,486)"/><rect x="180" y="504" width="12" height="12" transform="rotate(0,186,510)"/><rect x="192" y="48" width="12" height="12" transform="rotate(0,198,54)"/><rect x="192" y="72" width="12" height="12" transform="rotate(0,198,78)"/><rect x="192" y="96" width="12" height="12" transform="rotate(0,198,102)"/><rect x="192" y="132" width="12" height="12" transform="rotate(0,198,138)"/><rect x="192" y="144" width="12" height="12" transform="rotate(0,198,150)"/><rect x="192" y="156" width="12" height="12" transform="rotate(0,198,162)"/><rect x="192" y="180" width="12" height="12" transform="rotate(0,198,186)"/><rect x="192" y="192" width="12" height="12" transform="rotate(0,198,198)"/><rect x="192" y="240" width="12" height="12" transform="rotate(0,198,246)"/><rect x="192" y="252" width="12" height="12" transform="rotate(0,198,258)"/><rect x="192" y="264" width="12" height="12" transform="rotate(0,198,270)"/><rect x="192" y="276" width="12" height="12" transform="rotate(0,198,282)"/><rect x="192" y="312" width="12" height="12" transform="rotate(0,198,318)"/><rect x="192" y="324" width="12" height="12" transform="rotate(0,198,330)"/><rect x="192" y="336" width="12" height="12" transform="rotate(0,198,342)"/><rect x="192" y="348" width="12" height="12" transform="rotate(0,198,354)"/><rect x="192" y="372" width="12" height="12" transform="rotate(0,198,378)"/><rect x="192" y="420" width="12" height="12" transform="rotate(0,198,426)"/><rect x="192" y="432" width="12" height="12" transform="rotate(0,198,438)"/><rect x="192" y="444" width="12" height="12" transform="rotate(0,198,450)"/><rect x="192" y="504" width="12" height="12" transform="rotate(0,198,510)"/><rect x="204" y="24" width="12" height="12" transform="rotate(0,210,30)"/><rect x="204" y="60" width="12" height="12" transform="rotate(0,210,66)"/><rect x="204" y="156" width="12" height="12" transform="rotate(0,210,162)"/><rect x="204" y="168" width="12" height="12" transform="rotate(0,210,174)"/><rect x="204" y="180" width="12" height="12" transform="rotate(0,210,186)"/><rect x="204" y="192" width="12" height="12" transform="rotate(0,210,198)"/><rect x="204" y="216" width="12" height="12" transform="rotate(0,210,222)"/><rect x="204" y="228" width="12" height="12" transform="rotate(0,210,234)"/><rect x="204" y="240" width="12" height="12" transform="rotate(0,210,246)"/><rect x="204" y="276" width="12" height="12" transform="rotate(0,210,282)"/><rect x="204" y="360" width="12" height="12" transform="rotate(0,210,366)"/><rect x="204" y="396" width="12" height="12" transform="rotate(0,210,402)"/><rect x="204" y="420" width="12" height="12" transform="rotate(0,210,426)"/><rect x="204" y="456" width="12" height="12" transform="rotate(0,210,462)"/><rect x="204" y="468" width="12" height="12" transform="rotate(0,210,474)"/><rect x="204" y="480" width="12" height="12" transform="rotate(0,210,486)"/><rect x="204" y="504" width="12" height="12" transform="rotate(0,210,510)"/><rect x="216" y="36" width="12" height="12" transform="rotate(0,222,42)"/><rect x="216" y="60" width="12" height="12" transform="rotate(0,222,66)"/><rect x="216" y="96" width="12" height="12" transform="rotate(0,222,102)"/><rect x="216" y="108" width="12" height="12" transform="rotate(0,222,114)"/><rect x="216" y="120" width="12" height="12" transform="rotate(0,222,126)"/><rect x="216" y="156" width="12" height="12" transform="rotate(0,222,162)"/><rect x="216" y="180" width="12" height="12" transform="rotate(0,222,186)"/><rect x="216" y="204" width="12" height="12" transform="rotate(0,222,210)"/><rect x="216" y="216" width="12" height="12" transform="rotate(0,222,222)"/><rect x="216" y="228" width="12" height="12" transform="rotate(0,222,234)"/><rect x="216" y="276" width="12" height="12" transform="rotate(0,222,282)"/><rect x="216" y="288" width="12" height="12" transform="rotate(0,222,294)"/><rect x="216" y="300" width="12" height="12" transform="rotate(0,222,306)"/><rect x="216" y="348" width="12" height="12" transform="rotate(0,222,354)"/><rect x="216" y="360" width="12" height="12" transform="rotate(0,222,366)"/><rect x="216" y="396" width="12" height="12" transform="rotate(0,222,402)"/><rect x="216" y="420" width="12" height="12" transform="rotate(0,222,426)"/><rect x="216" y="468" width="12" height="12" transform="rotate(0,222,474)"/><rect x="228" y="24" width="12" height="12" transform="rotate(0,234,30)"/><rect x="228" y="36" width="12" height="12" transform="rotate(0,234,42)"/><rect x="228" y="60" width="12" height="12" transform="rotate(0,234,66)"/><rect x="228" y="84" width="12" height="12" transform="rotate(0,234,90)"/><rect x="228" y="168" width="12" height="12" transform="rotate(0,234,174)"/><rect x="228" y="192" width="12" height="12" transform="rotate(0,234,198)"/><rect x="228" y="204" width="12" height="12" transform="rotate(0,234,210)"/><rect x="228" y="228" width="12" height="12" transform="rotate(0,234,234)"/><rect x="228" y="240" width="12" height="12" transform="rotate(0,234,246)"/><rect x="228" y="276" width="12" height="12" transform="rotate(0,234,282)"/><rect x="228" y="288" width="12" height="12" transform="rotate(0,234,294)"/><rect x="228" y="300" width="12" height="12" transform="rotate(0,234,306)"/><rect x="228" y="324" width="12" height="12" transform="rotate(0,234,330)"/><rect x="228" y="336" width="12" height="12" transform="rotate(0,234,342)"/><rect x="228" y="348" width="12" height="12" transform="rotate(0,234,354)"/><rect x="228" y="360" width="12" height="12" transform="rotate(0,234,366)"/><rect x="228" y="384" width="12" height="12" transform="rotate(0,234,390)"/><rect x="228" y="396" width="12" height="12" transform="rotate(0,234,402)"/><rect x="228" y="408" width="12" height="12" transform="rotate(0,234,414)"/><rect x="228" y="420" width="12" height="12" transform="rotate(0,234,426)"/><rect x="228" y="456" width="12" height="12" transform="rotate(0,234,462)"/><rect x="228" y="480" width="12" height="12" transform="rotate(0,234,486)"/><rect x="240" y="24" width="12" height="12" transform="rotate(0,246,30)"/><rect x="240" y="48" width="12" height="12" transform="rotate(0,246,54)"/><rect x="240" y="60" width="12" height="12" transform="rotate(0,246,66)"/><rect x="240" y="84" width="12" height="12" transform="rotate(0,246,90)"/><rect x="240" y="96" width="12" height="12" transform="rotate(0,246,102)"/><rect x="240" y="108" width="12" height="12" transform="rotate(0,246,114)"/><rect x="240" y="120" width="12" height="12" transform="rotate(0,246,126)"/><rect x="240" y="132" width="12" height="12" transform="rotate(0,246,138)"/><rect x="240" y="168" width="12" height="12" transform="rotate(0,246,174)"/><rect x="240" y="192" width="12" height="12" transform="rotate(0,246,198)"/><rect x="240" y="216" width="12" height="12" transform="rotate(0,246,222)"/><rect x="240" y="228" width="12" height="12" transform="rotate(0,246,234)"/><rect x="240" y="252" width="12" height="12" transform="rotate(0,246,258)"/><rect x="240" y="324" width="12" height="12" transform="rotate(0,246,330)"/><rect x="240" y="348" width="12" height="12" transform="rotate(0,246,354)"/><rect x="240" y="360" width="12" height="12" transform="rotate(0,246,366)"/><rect x="240" y="396" width="12" height="12" transform="rotate(0,246,402)"/><rect x="240" y="444" width="12" height="12" transform="rotate(0,246,450)"/><rect x="240" y="456" width="12" height="12" transform="rotate(0,246,462)"/><rect x="240" y="480" width="12" height="12" transform="rotate(0,246,486)"/><rect x="240" y="504" width="12" height="12" transform="rotate(0,246,510)"/><rect x="252" y="36" width="12" height="12" transform="rotate(0,258,42)"/><rect x="252" y="72" width="12" height="12" transform="rotate(0,258,78)"/><rect x="252" y="132" width="12" height="12" transform="rotate(0,258,138)"/><rect x="252" y="156" width="12" height="12" transform="rotate(0,258,162)"/><rect x="252" y="168" width="12" height="12" transform="rotate(0,258,174)"/><rect x="252" y="180" width="12" height="12" transform="rotate(0,258,186)"/><rect x="252" y="204" width="12" height="12" transform="rotate(0,258,210)"/><rect x="252" y="228" width="12" height="12" transform="rotate(0,258,234)"/><rect x="252" y="240" width="12" height="12" transform="rotate(0,258,246)"/><rect x="252" y="264" width="12" height="12" transform="rotate(0,258,270)"/><rect x="252" y="288" width="12" height="12" transform="rotate(0,258,294)"/><rect x="252" y="300" width="12" height="12" transform="rotate(0,258,306)"/><rect x="252" y="336" width="12" height="12" transform="rotate(0,258,342)"/><rect x="252" y="348" width="12" height="12" transform="rotate(0,258,354)"/><rect x="252" y="360" width="12" height="12" transform="rotate(0,258,366)"/><rect x="252" y="372" width="12" height="12" transform="rotate(0,258,378)"/><rect x="252" y="384" width="12" height="12" transform="rotate(0,258,390)"/><rect x="252" y="396" width="12" height="12" transform="rotate(0,258,402)"/><rect x="252" y="408" width="12" height="12" transform="rotate(0,258,414)"/><rect x="252" y="420" width="12" height="12" transform="rotate(0,258,426)"/><rect x="252" y="432" width="12" height="12" transform="rotate(0,258,438)"/><rect x="252" y="456" width="12" height="12" transform="rotate(0,258,462)"/><rect x="252" y="480" width="12" height="12" transform="rotate(0,258,486)"/><rect x="264" y="48" width="12" height="12" transform="rotate(0,270,54)"/><rect x="264" y="72" width="12" height="12" transform="rotate(0,270,78)"/><rect x="264" y="96" width="12" height="12" transform="rotate(0,270,102)"/><rect x="264" y="120" width="12" height="12" transform="rotate(0,270,126)"/><rect x="264" y="156" width="12" height="12" transform="rotate(0,270,162)"/><rect x="264" y="168" width="12" height="12" transform="rotate(0,270,174)"/><rect x="264" y="180" width="12" height="12" transform="rotate(0,270,186)"/><rect x="264" y="192" width="12" height="12" transform="rotate(0,270,198)"/><rect x="264" y="204" width="12" height="12" transform="rotate(0,270,210)"/><rect x="264" y="228" width="12" height="12" transform="rotate(0,270,234)"/><rect x="264" y="240" width="12" height="12" transform="rotate(0,270,246)"/><rect x="264" y="288" width="12" height="12" transform="rotate(0,270,294)"/><rect x="264" y="348" width="12" height="12" transform="rotate(0,270,354)"/><rect x="264" y="396" width="12" height="12" transform="rotate(0,270,402)"/><rect x="264" y="432" width="12" height="12" transform="rotate(0,270,438)"/><rect x="264" y="456" width="12" height="12" transform="rotate(0,270,462)"/><rect x="264" y="468" width="12" height="12" transform="rotate(0,270,474)"/><rect x="264" y="480" width="12" height="12" transform="rotate(0,270,486)"/><rect x="264" y="492" width="12" height="12" transform="rotate(0,270,498)"/><rect x="264" y="504" width="12" height="12" transform="rotate(0,270,510)"/><rect x="276" y="24" width="12" height="12" transform="rotate(0,282,30)"/><rect x="276" y="36" width="12" height="12" transform="rotate(0,282,42)"/><rect x="276" y="144" width="12" height="12" transform="rotate(0,282,150)"/><rect x="276" y="180" width="12" height="12" transform="rotate(0,282,186)"/><rect x="276" y="204" width="12" height="12" transform="rotate(0,282,210)"/><rect x="276" y="216" width="12" height="12" transform="rotate(0,282,222)"/><rect x="276" y="228" width="12" height="12" transform="rotate(0,282,234)"/><rect x="276" y="312" width="12" height="12" transform="rotate(0,282,318)"/><rect x="276" y="324" width="12" height="12" transform="rotate(0,282,330)"/><rect x="276" y="348" width="12" height="12" transform="rotate(0,282,354)"/><rect x="276" y="360" width="12" height="12" transform="rotate(0,282,366)"/><rect x="276" y="384" width="12" height="12" transform="rotate(0,282,390)"/><rect x="276" y="396" width="12" height="12" transform="rotate(0,282,402)"/><rect x="276" y="444" width="12" height="12" transform="rotate(0,282,450)"/><rect x="276" y="468" width="12" height="12" transform="rotate(0,282,474)"/><rect x="288" y="24" width="12" height="12" transform="rotate(0,294,30)"/><rect x="288" y="48" width="12" height="12" transform="rotate(0,294,54)"/><rect x="288" y="60" width="12" height="12" transform="rotate(0,294,66)"/><rect x="288" y="72" width="12" height="12" transform="rotate(0,294,78)"/><rect x="288" y="84" width="12" height="12" transform="rotate(0,294,90)"/><rect x="288" y="96" width="12" height="12" transform="rotate(0,294,102)"/><rect x="288" y="132" width="12" height="12" transform="rotate(0,294,138)"/><rect x="288" y="144" width="12" height="12" transform="rotate(0,294,150)"/><rect x="288" y="156" width="12" height="12" transform="rotate(0,294,162)"/><rect x="288" y="168" width="12" height="12" transform="rotate(0,294,174)"/><rect x="288" y="180" width="12" height="12" transform="rotate(0,294,186)"/><rect x="288" y="192" width="12" height="12" transform="rotate(0,294,198)"/><rect x="288" y="216" width="12" height="12" transform="rotate(0,294,222)"/><rect x="288" y="228" width="12" height="12" transform="rotate(0,294,234)"/><rect x="288" y="240" width="12" height="12" transform="rotate(0,294,246)"/><rect x="288" y="264" width="12" height="12" transform="rotate(0,294,270)"/><rect x="288" y="276" width="12" height="12" transform="rotate(0,294,282)"/><rect x="288" y="300" width="12" height="12" transform="rotate(0,294,306)"/><rect x="288" y="348" width="12" height="12" transform="rotate(0,294,354)"/><rect x="288" y="360" width="12" height="12" transform="rotate(0,294,366)"/><rect x="288" y="384" width="12" height="12" transform="rotate(0,294,390)"/><rect x="288" y="432" width="12" height="12" transform="rotate(0,294,438)"/><rect x="288" y="444" width="12" height="12" transform="rotate(0,294,450)"/><rect x="300" y="24" width="12" height="12" transform="rotate(0,306,30)"/><rect x="300" y="60" width="12" height="12" transform="rotate(0,306,66)"/><rect x="300" y="84" width="12" height="12" transform="rotate(0,306,90)"/><rect x="300" y="120" width="12" height="12" transform="rotate(0,306,126)"/><rect x="300" y="132" width="12" height="12" transform="rotate(0,306,138)"/><rect x="300" y="168" width="12" height="12" transform="rotate(0,306,174)"/><rect x="300" y="180" width="12" height="12" transform="rotate(0,306,186)"/><rect x="300" y="228" width="12" height="12" transform="rotate(0,306,234)"/><rect x="300" y="240" width="12" height="12" transform="rotate(0,306,246)"/><rect x="300" y="288" width="12" height="12" transform="rotate(0,306,294)"/><rect x="300" y="300" width="12" height="12" transform="rotate(0,306,306)"/><rect x="300" y="324" width="12" height="12" transform="rotate(0,306,330)"/><rect x="300" y="336" width="12" height="12" transform="rotate(0,306,342)"/><rect x="300" y="348" width="12" height="12" transform="rotate(0,306,354)"/><rect x="300" y="372" width="12" height="12" transform="rotate(0,306,378)"/><rect x="300" y="384" width="12" height="12" transform="rotate(0,306,390)"/><rect x="300" y="396" width="12" height="12" transform="rotate(0,306,402)"/><rect x="300" y="408" width="12" height="12" transform="rotate(0,306,414)"/><rect x="300" y="432" width="12" height="12" transform="rotate(0,306,438)"/><rect x="300" y="468" width="12" height="12" transform="rotate(0,306,474)"/><rect x="300" y="480" width="12" height="12" transform="rotate(0,306,486)"/><rect x="300" y="492" width="12" height="12" transform="rotate(0,306,498)"/><rect x="300" y="504" width="12" height="12" transform="rotate(0,306,510)"/><rect x="312" y="24" width="12" height="12" transform="rotate(0,318,30)"/><rect x="312" y="72" width="12" height="12" transform="rotate(0,318,78)"/><rect x="312" y="84" width="12" height="12" transform="rotate(0,318,90)"/><rect x="312" y="96" width="12" height="12" transform="rotate(0,318,102)"/><rect x="312" y="108" width="12" height="12" transform="rotate(0,318,114)"/><rect x="312" y="132" width="12" height="12" transform="rotate(0,318,138)"/><rect x="312" y="168" width="12" height="12" transform="rotate(0,318,174)"/><rect x="312" y="240" width="12" height="12" transform="rotate(0,318,246)"/><rect x="312" y="264" width="12" height="12" transform="rotate(0,318,270)"/><rect x="312" y="276" width="12" height="12" transform="rotate(0,318,282)"/><rect x="312" y="288" width="12" height="12" transform="rotate(0,318,294)"/><rect x="312" y="348" width="12" height="12" transform="rotate(0,318,354)"/><rect x="312" y="360" width="12" height="12" transform="rotate(0,318,366)"/><rect x="312" y="384" width="12" height="12" transform="rotate(0,318,390)"/><rect x="312" y="408" width="12" height="12" transform="rotate(0,318,414)"/><rect x="312" y="432" width="12" height="12" transform="rotate(0,318,438)"/><rect x="312" y="444" width="12" height="12" transform="rotate(0,318,450)"/><rect x="312" y="468" width="12" height="12" transform="rotate(0,318,474)"/><rect x="312" y="480" width="12" height="12" transform="rotate(0,318,486)"/><rect x="324" y="36" width="12" height="12" transform="rotate(0,330,42)"/><rect x="324" y="72" width="12" height="12" transform="rotate(0,330,78)"/><rect x="324" y="84" width="12" height="12" transform="rotate(0,330,90)"/><rect x="324" y="120" width="12" height="12" transform="rotate(0,330,126)"/><rect x="324" y="132" width="12" height="12" transform="rotate(0,330,138)"/><rect x="324" y="144" width="12" height="12" transform="rotate(0,330,150)"/><rect x="324" y="156" width="12" height="12" transform="rotate(0,330,162)"/><rect x="324" y="228" width="12" height="12" transform="rotate(0,330,234)"/><rect x="324" y="240" width="12" height="12" transform="rotate(0,330,246)"/><rect x="324" y="276" width="12" height="12" transform="rotate(0,330,282)"/><rect x="324" y="300" width="12" height="12" transform="rotate(0,330,306)"/><rect x="324" y="312" width="12" height="12" transform="rotate(0,330,318)"/><rect x="324" y="348" width="12" height="12" transform="rotate(0,330,354)"/><rect x="324" y="360" width="12" height="12" transform="rotate(0,330,366)"/><rect x="324" y="372" width="12" height="12" transform="rotate(0,330,378)"/><rect x="324" y="384" width="12" height="12" transform="rotate(0,330,390)"/><rect x="324" y="408" width="12" height="12" transform="rotate(0,330,414)"/><rect x="324" y="420" width="12" height="12" transform="rotate(0,330,426)"/><rect x="324" y="432" width="12" height="12" transform="rotate(0,330,438)"/><rect x="324" y="444" width="12" height="12" transform="rotate(0,330,450)"/><rect x="324" y="456" width="12" height="12" transform="rotate(0,330,462)"/><rect x="324" y="480" width="12" height="12" transform="rotate(0,330,486)"/><rect x="324" y="492" width="12" height="12" transform="rotate(0,330,498)"/><rect x="324" y="504" width="12" height="12" transform="rotate(0,330,510)"/><rect x="336" y="24" width="12" height="12" transform="rotate(0,342,30)"/><rect x="336" y="36" width="12" height="12" transform="rotate(0,342,42)"/><rect x="336" y="48" width="12" height="12" transform="rotate(0,342,54)"/><rect x="336" y="84" width="12" height="12" transform="rotate(0,342,90)"/><rect x="336" y="96" width="12" height="12" transform="rotate(0,342,102)"/><rect x="336" y="108" width="12" height="12" transform="rotate(0,342,114)"/><rect x="336" y="144" width="12" height="12" transform="rotate(0,342,150)"/><rect x="336" y="180" width="12" height="12" transform="rotate(0,342,186)"/><rect x="336" y="192" width="12" height="12" transform="rotate(0,342,198)"/><rect x="336" y="228" width="12" height="12" transform="rotate(0,342,234)"/><rect x="336" y="288" width="12" height="12" transform="rotate(0,342,294)"/><rect x="336" y="300" width="12" height="12" transform="rotate(0,342,306)"/><rect x="336" y="312" width="12" height="12" transform="rotate(0,342,318)"/><rect x="336" y="324" width="12" height="12" transform="rotate(0,342,330)"/><rect x="336" y="348" width="12" height="12" transform="rotate(0,342,354)"/><rect x="336" y="384" width="12" height="12" transform="rotate(0,342,390)"/><rect x="336" y="396" width="12" height="12" transform="rotate(0,342,402)"/><rect x="336" y="408" width="12" height="12" transform="rotate(0,342,414)"/><rect x="336" y="444" width="12" height="12" transform="rotate(0,342,450)"/><rect x="336" y="456" width="12" height="12" transform="rotate(0,342,462)"/><rect x="336" y="468" width="12" height="12" transform="rotate(0,342,474)"/><rect x="336" y="492" width="12" height="12" transform="rotate(0,342,498)"/><rect x="336" y="504" width="12" height="12" transform="rotate(0,342,510)"/><rect x="348" y="24" width="12" height="12" transform="rotate(0,354,30)"/><rect x="348" y="48" width="12" height="12" transform="rotate(0,354,54)"/><rect x="348" y="60" width="12" height="12" transform="rotate(0,354,66)"/><rect x="348" y="84" width="12" height="12" transform="rotate(0,354,90)"/><rect x="348" y="120" width="12" height="12" transform="rotate(0,354,126)"/><rect x="348" y="144" width="12" height="12" transform="rotate(0,354,150)"/><rect x="348" y="180" width="12" height="12" transform="rotate(0,354,186)"/><rect x="348" y="228" width="12" height="12" transform="rotate(0,354,234)"/><rect x="348" y="252" width="12" height="12" transform="rotate(0,354,258)"/><rect x="348" y="276" width="12" height="12" transform="rotate(0,354,282)"/><rect x="348" y="300" width="12" height="12" transform="rotate(0,354,306)"/><rect x="348" y="324" width="12" height="12" transform="rotate(0,354,330)"/><rect x="348" y="360" width="12" height="12" transform="rotate(0,354,366)"/><rect x="348" y="384" width="12" height="12" transform="rotate(0,354,390)"/><rect x="348" y="396" width="12" height="12" transform="rotate(0,354,402)"/><rect x="348" y="456" width="12" height="12" transform="rotate(0,354,462)"/><rect x="348" y="468" width="12" height="12" transform="rotate(0,354,474)"/><rect x="348" y="480" width="12" height="12" transform="rotate(0,354,486)"/><rect x="348" y="492" width="12" height="12" transform="rotate(0,354,498)"/><rect x="360" y="36" width="12" height="12" transform="rotate(0,366,42)"/><rect x="360" y="60" width="12" height="12" transform="rotate(0,366,66)"/><rect x="360" y="72" width="12" height="12" transform="rotate(0,366,78)"/><rect x="360" y="84" width="12" height="12" transform="rotate(0,366,90)"/><rect x="360" y="96" width="12" height="12" transform="rotate(0,366,102)"/><rect x="360" y="156" width="12" height="12" transform="rotate(0,366,162)"/><rect x="360" y="204" width="12" height="12" transform="rotate(0,366,210)"/><rect x="360" y="228" width="12" height="12" transform="rotate(0,366,234)"/><rect x="360" y="240" width="12" height="12" transform="rotate(0,366,246)"/><rect x="360" y="252" width="12" height="12" transform="rotate(0,366,258)"/><rect x="360" y="288" width="12" height="12" transform="rotate(0,366,294)"/><rect x="360" y="300" width="12" height="12" transform="rotate(0,366,306)"/><rect x="360" y="312" width="12" height="12" transform="rotate(0,366,318)"/><rect x="360" y="348" width="12" height="12" transform="rotate(0,366,354)"/><rect x="360" y="384" width="12" height="12" transform="rotate(0,366,390)"/><rect x="360" y="396" width="12" height="12" transform="rotate(0,366,402)"/><rect x="360" y="432" width="12" height="12" transform="rotate(0,366,438)"/><rect x="360" y="444" width="12" height="12" transform="rotate(0,366,450)"/><rect x="360" y="468" width="12" height="12" transform="rotate(0,366,474)"/><rect x="360" y="492" width="12" height="12" transform="rotate(0,366,498)"/><rect x="372" y="24" width="12" height="12" transform="rotate(0,378,30)"/><rect x="372" y="36" width="12" height="12" transform="rotate(0,378,42)"/><rect x="372" y="144" width="12" height="12" transform="rotate(0,378,150)"/><rect x="372" y="168" width="12" height="12" transform="rotate(0,378,174)"/><rect x="372" y="192" width="12" height="12" transform="rotate(0,378,198)"/><rect x="372" y="216" width="12" height="12" transform="rotate(0,378,222)"/><rect x="372" y="240" width="12" height="12" transform="rotate(0,378,246)"/><rect x="372" y="264" width="12" height="12" transform="rotate(0,378,270)"/><rect x="372" y="288" width="12" height="12" transform="rotate(0,378,294)"/><rect x="372" y="312" width="12" height="12" transform="rotate(0,378,318)"/><rect x="372" y="324" width="12" height="12" transform="rotate(0,378,330)"/><rect x="372" y="372" width="12" height="12" transform="rotate(0,378,378)"/><rect x="372" y="432" width="12" height="12" transform="rotate(0,378,438)"/><rect x="372" y="456" width="12" height="12" transform="rotate(0,378,462)"/><rect x="372" y="480" width="12" height="12" transform="rotate(0,378,486)"/><rect x="372" y="492" width="12" height="12" transform="rotate(0,378,498)"/><rect x="384" y="24" width="12" height="12" transform="rotate(0,390,30)"/><rect x="384" y="36" width="12" height="12" transform="rotate(0,390,42)"/><rect x="384" y="96" width="12" height="12" transform="rotate(0,390,102)"/><rect x="384" y="108" width="12" height="12" transform="rotate(0,390,114)"/><rect x="384" y="132" width="12" height="12" transform="rotate(0,390,138)"/><rect x="384" y="144" width="12" height="12" transform="rotate(0,390,150)"/><rect x="384" y="156" width="12" height="12" transform="rotate(0,390,162)"/><rect x="384" y="168" width="12" height="12" transform="rotate(0,390,174)"/><rect x="384" y="180" width="12" height="12" transform="rotate(0,390,186)"/><rect x="384" y="204" width="12" height="12" transform="rotate(0,390,210)"/><rect x="384" y="216" width="12" height="12" transform="rotate(0,390,222)"/><rect x="384" y="228" width="12" height="12" transform="rotate(0,390,234)"/><rect x="384" y="240" width="12" height="12" transform="rotate(0,390,246)"/><rect x="384" y="252" width="12" height="12" transform="rotate(0,390,258)"/><rect x="384" y="264" width="12" height="12" transform="rotate(0,390,270)"/><rect x="384" y="288" width="12" height="12" transform="rotate(0,390,294)"/><rect x="384" y="324" width="12" height="12" transform="rotate(0,390,330)"/><rect x="384" y="336" width="12" height="12" transform="rotate(0,390,342)"/><rect x="384" y="360" width="12" height="12" transform="rotate(0,390,366)"/><rect x="384" y="372" width="12" height="12" transform="rotate(0,390,378)"/><rect x="384" y="384" width="12" height="12" transform="rotate(0,390,390)"/><rect x="384" y="396" width="12" height="12" transform="rotate(0,390,402)"/><rect x="384" y="420" width="12" height="12" transform="rotate(0,390,426)"/><rect x="384" y="444" width="12" height="12" transform="rotate(0,390,450)"/><rect x="384" y="480" width="12" height="12" transform="rotate(0,390,486)"/><rect x="384" y="492" width="12" height="12" transform="rotate(0,390,498)"/><rect x="384" y="504" width="12" height="12" transform="rotate(0,390,510)"/><rect x="396" y="24" width="12" height="12" transform="rotate(0,402,30)"/><rect x="396" y="36" width="12" height="12" transform="rotate(0,402,42)"/><rect x="396" y="48" width="12" height="12" transform="rotate(0,402,54)"/><rect x="396" y="72" width="12" height="12" transform="rotate(0,402,78)"/><rect x="396" y="84" width="12" height="12" transform="rotate(0,402,90)"/><rect x="396" y="108" width="12" height="12" transform="rotate(0,402,114)"/><rect x="396" y="132" width="12" height="12" transform="rotate(0,402,138)"/><rect x="396" y="168" width="12" height="12" transform="rotate(0,402,174)"/><rect x="396" y="192" width="12" height="12" transform="rotate(0,402,198)"/><rect x="396" y="216" width="12" height="12" transform="rotate(0,402,222)"/><rect x="396" y="252" width="12" height="12" transform="rotate(0,402,258)"/><rect x="396" y="264" width="12" height="12" transform="rotate(0,402,270)"/><rect x="396" y="288" width="12" height="12" transform="rotate(0,402,294)"/><rect x="396" y="324" width="12" height="12" transform="rotate(0,402,330)"/><rect x="396" y="336" width="12" height="12" transform="rotate(0,402,342)"/><rect x="396" y="348" width="12" height="12" transform="rotate(0,402,354)"/><rect x="396" y="360" width="12" height="12" transform="rotate(0,402,366)"/><rect x="396" y="396" width="12" height="12" transform="rotate(0,402,402)"/><rect x="396" y="408" width="12" height="12" transform="rotate(0,402,414)"/><rect x="396" y="432" width="12" height="12" transform="rotate(0,402,438)"/><rect x="396" y="444" width="12" height="12" transform="rotate(0,402,450)"/><rect x="396" y="468" width="12" height="12" transform="rotate(0,402,474)"/><rect x="396" y="480" width="12" height="12" transform="rotate(0,402,486)"/><rect x="396" y="492" width="12" height="12" transform="rotate(0,402,498)"/><rect x="396" y="504" width="12" height="12" transform="rotate(0,402,510)"/><rect x="408" y="24" width="12" height="12" transform="rotate(0,414,30)"/><rect x="408" y="36" width="12" height="12" transform="rotate(0,414,42)"/><rect x="408" y="72" width="12" height="12" transform="rotate(0,414,78)"/><rect x="408" y="96" width="12" height="12" transform="rotate(0,414,102)"/><rect x="408" y="132" width="12" height="12" transform="rotate(0,414,138)"/><rect x="408" y="144" width="12" height="12" transform="rotate(0,414,150)"/><rect x="408" y="156" width="12" height="12" transform="rotate(0,414,162)"/><rect x="408" y="168" width="12" height="12" transform="rotate(0,414,174)"/><rect x="408" y="180" width="12" height="12" transform="rotate(0,414,186)"/><rect x="408" y="216" width="12" height="12" transform="rotate(0,414,222)"/><rect x="408" y="228" width="12" height="12" transform="rotate(0,414,234)"/><rect x="408" y="252" width="12" height="12" transform="rotate(0,414,258)"/><rect x="408" y="264" width="12" height="12" transform="rotate(0,414,270)"/><rect x="408" y="288" width="12" height="12" transform="rotate(0,414,294)"/><rect x="408" y="300" width="12" height="12" transform="rotate(0,414,306)"/><rect x="408" y="312" width="12" height="12" transform="rotate(0,414,318)"/><rect x="408" y="324" width="12" height="12" transform="rotate(0,414,330)"/><rect x="408" y="336" width="12" height="12" transform="rotate(0,414,342)"/><rect x="408" y="372" width="12" height="12" transform="rotate(0,414,378)"/><rect x="408" y="396" width="12" height="12" transform="rotate(0,414,402)"/><rect x="408" y="408" width="12" height="12" transform="rotate(0,414,414)"/><rect x="408" y="420" width="12" height="12" transform="rotate(0,414,426)"/><rect x="408" y="432" width="12" height="12" transform="rotate(0,414,438)"/><rect x="408" y="444" width="12" height="12" transform="rotate(0,414,450)"/><rect x="408" y="456" width="12" height="12" transform="rotate(0,414,462)"/><rect x="408" y="468" width="12" height="12" transform="rotate(0,414,474)"/><rect x="408" y="480" width="12" height="12" transform="rotate(0,414,486)"/><rect x="408" y="492" width="12" height="12" transform="rotate(0,414,498)"/><rect x="408" y="504" width="12" height="12" transform="rotate(0,414,510)"/><rect x="420" y="120" width="12" height="12" transform="rotate(0,426,126)"/><rect x="420" y="132" width="12" height="12" transform="rotate(0,426,138)"/><rect x="420" y="168" width="12" height="12" transform="rotate(0,426,174)"/><rect x="420" y="216" width="12" height="12" transform="rotate(0,426,222)"/><rect x="420" y="228" width="12" height="12" transform="rotate(0,426,234)"/><rect x="420" y="264" width="12" height="12" transform="rotate(0,426,270)"/><rect x="420" y="276" width="12" height="12" transform="rotate(0,426,282)"/><rect x="420" y="300" width="12" height="12" transform="rotate(0,426,306)"/><rect x="420" y="324" width="12" height="12" transform="rotate(0,426,330)"/><rect x="420" y="336" width="12" height="12" transform="rotate(0,426,342)"/><rect x="420" y="348" width="12" height="12" transform="rotate(0,426,354)"/><rect x="420" y="360" width="12" height="12" transform="rotate(0,426,366)"/><rect x="420" y="396" width="12" height="12" transform="rotate(0,426,402)"/><rect x="420" y="408" width="12" height="12" transform="rotate(0,426,414)"/><rect x="420" y="456" width="12" height="12" transform="rotate(0,426,462)"/><rect x="420" y="480" width="12" height="12" transform="rotate(0,426,486)"/><rect x="420" y="492" width="12" height="12" transform="rotate(0,426,498)"/><rect x="432" y="120" width="12" height="12" transform="rotate(0,438,126)"/><rect x="432" y="168" width="12" height="12" transform="rotate(0,438,174)"/><rect x="432" y="192" width="12" height="12" transform="rotate(0,438,198)"/><rect x="432" y="228" width="12" height="12" transform="rotate(0,438,234)"/><rect x="432" y="240" width="12" height="12" transform="rotate(0,438,246)"/><rect x="432" y="252" width="12" height="12" transform="rotate(0,438,258)"/><rect x="432" y="276" width="12" height="12" transform="rotate(0,438,282)"/><rect x="432" y="300" width="12" height="12" transform="rotate(0,438,306)"/><rect x="432" y="312" width="12" height="12" transform="rotate(0,438,318)"/><rect x="432" y="324" width="12" height="12" transform="rotate(0,438,330)"/><rect x="432" y="348" width="12" height="12" transform="rotate(0,438,354)"/><rect x="432" y="372" width="12" height="12" transform="rotate(0,438,378)"/><rect x="432" y="384" width="12" height="12" transform="rotate(0,438,390)"/><rect x="432" y="396" width="12" height="12" transform="rotate(0,438,402)"/><rect x="432" y="408" width="12" height="12" transform="rotate(0,438,414)"/><rect x="432" y="432" width="12" height="12" transform="rotate(0,438,438)"/><rect x="432" y="456" width="12" height="12" transform="rotate(0,438,462)"/><rect x="432" y="468" width="12" height="12" transform="rotate(0,438,474)"/><rect x="444" y="156" width="12" height="12" transform="rotate(0,450,162)"/><rect x="444" y="168" width="12" height="12" transform="rotate(0,450,174)"/><rect x="444" y="192" width="12" height="12" transform="rotate(0,450,198)"/><rect x="444" y="264" width="12" height="12" transform="rotate(0,450,270)"/><rect x="444" y="300" width="12" height="12" transform="rotate(0,450,306)"/><rect x="444" y="324" width="12" height="12" transform="rotate(0,450,330)"/><rect x="444" y="336" width="12" height="12" transform="rotate(0,450,342)"/><rect x="444" y="360" width="12" height="12" transform="rotate(0,450,366)"/><rect x="444" y="372" width="12" height="12" transform="rotate(0,450,378)"/><rect x="444" y="396" width="12" height="12" transform="rotate(0,450,402)"/><rect x="444" y="408" width="12" height="12" transform="rotate(0,450,414)"/><rect x="444" y="456" width="12" height="12" transform="rotate(0,450,462)"/><rect x="444" y="468" width="12" height="12" transform="rotate(0,450,474)"/><rect x="444" y="492" width="12" height="12" transform="rotate(0,450,498)"/><rect x="444" y="504" width="12" height="12" transform="rotate(0,450,510)"/><rect x="456" y="120" width="12" height="12" transform="rotate(0,462,126)"/><rect x="456" y="168" width="12" height="12" transform="rotate(0,462,174)"/><rect x="456" y="180" width="12" height="12" transform="rotate(0,462,186)"/><rect x="456" y="192" width="12" height="12" transform="rotate(0,462,198)"/><rect x="456" y="204" width="12" height="12" transform="rotate(0,462,210)"/><rect x="456" y="216" width="12" height="12" transform="rotate(0,462,222)"/><rect x="456" y="228" width="12" height="12" transform="rotate(0,462,234)"/><rect x="456" y="252" width="12" height="12" transform="rotate(0,462,258)"/><rect x="456" y="276" width="12" height="12" transform="rotate(0,462,282)"/><rect x="456" y="288" width="12" height="12" transform="rotate(0,462,294)"/><rect x="456" y="300" width="12" height="12" transform="rotate(0,462,306)"/><rect x="456" y="312" width="12" height="12" transform="rotate(0,462,318)"/><rect x="456" y="336" width="12" height="12" transform="rotate(0,462,342)"/><rect x="456" y="348" width="12" height="12" transform="rotate(0,462,354)"/><rect x="456" y="372" width="12" height="12" transform="rotate(0,462,378)"/><rect x="456" y="384" width="12" height="12" transform="rotate(0,462,390)"/><rect x="456" y="396" width="12" height="12" transform="rotate(0,462,402)"/><rect x="456" y="408" width="12" height="12" transform="rotate(0,462,414)"/><rect x="456" y="420" width="12" height="12" transform="rotate(0,462,426)"/><rect x="456" y="432" width="12" height="12" transform="rotate(0,462,438)"/><rect x="456" y="444" width="12" height="12" transform="rotate(0,462,450)"/><rect x="456" y="456" width="12" height="12" transform="rotate(0,462,462)"/><rect x="456" y="492" width="12" height="12" transform="rotate(0,462,498)"/><rect x="468" y="120" width="12" height="12" transform="rotate(0,474,126)"/><rect x="468" y="144" width="12" height="12" transform="rotate(0,474,150)"/><rect x="468" y="180" width="12" height="12" transform="rotate(0,474,186)"/><rect x="468" y="204" width="12" height="12" transform="rotate(0,474,210)"/><rect x="468" y="216" width="12" height="12" transform="rotate(0,474,222)"/><rect x="468" y="252" width="12" height="12" transform="rotate(0,474,258)"/><rect x="468" y="288" width="12" height="12" transform="rotate(0,474,294)"/><rect x="468" y="300" width="12" height="12" transform="rotate(0,474,306)"/><rect x="468" y="336" width="12" height="12" transform="rotate(0,474,342)"/><rect x="468" y="348" width="12" height="12" transform="rotate(0,474,354)"/><rect x="468" y="372" width="12" height="12" transform="rotate(0,474,378)"/><rect x="468" y="396" width="12" height="12" transform="rotate(0,474,402)"/><rect x="468" y="444" width="12" height="12" transform="rotate(0,474,450)"/><rect x="468" y="468" width="12" height="12" transform="rotate(0,474,474)"/><rect x="468" y="480" width="12" height="12" transform="rotate(0,474,486)"/><rect x="468" y="504" width="12" height="12" transform="rotate(0,474,510)"/><rect x="480" y="144" width="12" height="12" transform="rotate(0,486,150)"/><rect x="480" y="156" width="12" height="12" transform="rotate(0,486,162)"/><rect x="480" y="180" width="12" height="12" transform="rotate(0,486,186)"/><rect x="480" y="204" width="12" height="12" transform="rotate(0,486,210)"/><rect x="480" y="228" width="12" height="12" transform="rotate(0,486,234)"/><rect x="480" y="276" width="12" height="12" transform="rotate(0,486,282)"/><rect x="480" y="300" width="12" height="12" transform="rotate(0,486,306)"/><rect x="480" y="312" width="12" height="12" transform="rotate(0,486,318)"/><rect x="480" y="324" width="12" height="12" transform="rotate(0,486,330)"/><rect x="480" y="336" width="12" height="12" transform="rotate(0,486,342)"/><rect x="480" y="348" width="12" height="12" transform="rotate(0,486,354)"/><rect x="480" y="372" width="12" height="12" transform="rotate(0,486,378)"/><rect x="480" y="420" width="12" height="12" transform="rotate(0,486,426)"/><rect x="480" y="444" width="12" height="12" transform="rotate(0,486,450)"/><rect x="480" y="456" width="12" height="12" transform="rotate(0,486,462)"/><rect x="480" y="492" width="12" height="12" transform="rotate(0,486,498)"/><rect x="480" y="504" width="12" height="12" transform="rotate(0,486,510)"/><rect x="492" y="156" width="12" height="12" transform="rotate(0,498,162)"/><rect x="492" y="168" width="12" height="12" transform="rotate(0,498,174)"/><rect x="492" y="180" width="12" height="12" transform="rotate(0,498,186)"/><rect x="492" y="192" width="12" height="12" transform="rotate(0,498,198)"/><rect x="492" y="216" width="12" height="12" transform="rotate(0,498,222)"/><rect x="492" y="252" width="12" height="12" transform="rotate(0,498,258)"/><rect x="492" y="300" width="12" height="12" transform="rotate(0,498,306)"/><rect x="492" y="336" width="12" height="12" transform="rotate(0,498,342)"/><rect x="492" y="360" width="12" height="12" transform="rotate(0,498,366)"/><rect x="492" y="384" width="12" height="12" transform="rotate(0,498,390)"/><rect x="492" y="420" width="12" height="12" transform="rotate(0,498,426)"/><rect x="492" y="456" width="12" height="12" transform="rotate(0,498,462)"/><rect x="492" y="480" width="12" height="12" transform="rotate(0,498,486)"/><rect x="492" y="504" width="12" height="12" transform="rotate(0,498,510)"/><rect x="504" y="156" width="12" height="12" transform="rotate(0,510,162)"/><rect x="504" y="192" width="12" height="12" transform="rotate(0,510,198)"/><rect x="504" y="204" width="12" height="12" transform="rotate(0,510,210)"/><rect x="504" y="216" width="12" height="12" transform="rotate(0,510,222)"/><rect x="504" y="228" width="12" height="12" transform="rotate(0,510,234)"/><rect x="504" y="252" width="12" height="12" transform="rotate(0,510,258)"/><rect x="504" y="264" width="12" height="12" transform="rotate(0,510,270)"/><rect x="504" y="276" width="12" height="12" transform="rotate(0,510,282)"/><rect x="504" y="288" width="12" height="12" transform="rotate(0,510,294)"/><rect x="504" y="324" width="12" height="12" transform="rotate(0,510,330)"/><rect x="504" y="336" width="12" height="12" transform="rotate(0,510,342)"/><rect x="504" y="348" width="12" height="12" transform="rotate(0,510,354)"/><rect x="504" y="408" width="12" height="12" transform="rotate(0,510,414)"/><rect x="504" y="456" width="12" height="12" transform="rotate(0,510,462)"/><rect x="504" y="468" width="12" height="12" transform="rotate(0,510,474)"/><rect x="504" y="480" width="12" height="12" transform="rotate(0,510,486)"/></clipPath><clipPath id="_5b6n64vy-clip-path-corners-square-color-0-0"><path clip-rule="evenodd" d="M 24 24v 84h 84v -84zM 36 36h 60v 60h -60z" transform="rotate(0,66,66)"/></clipPath><clipPath id="_5b6n64vy-clip-path-corners-dot-color-0-0"><rect x="48" y="48" width="36" height="36" transform="rotate(0,66,66)"/></clipPath><clipPath id="_5b6n64vy-clip-path-corners-square-color-1-0"><path clip-rule="evenodd" d="M 432 24v 84h 84v -84zM 444 36h 60v 60h -60z" transform="rotate(90,474,66)"/></clipPath><clipPath id="_5b6n64vy-clip-path-corners-dot-color-1-0"><rect x="456" y="48" width="36" height="36" transform="rotate(90,474,66)"/></clipPath><clipPath id="_5b6n64vy-clip-path-corners-square-color-0-1"><path clip-rule="evenodd" d="M 24 432v 84h 84v -84zM 36 444h 60v 60h -60z" transform="rotate(-90,66,474)"/></clipPath><clipPath id="_5b6n64vy-clip-path-corners-dot-color-0-1"><rect x="48" y="456" width="36" height="36" transform="rotate(-90,66,474)"/></clipPath></defs><rect x="0" y="0" height="540" width="540" clip-path="url('#_5b6n64vy-clip-path-background-color')" fill="#ffffff"/><rect x="24" y="24" height="492" width="492" clip-path="url('#_5b6n64vy-clip-path-dot-color')" fill="rgb(0, 0, 0)"/><rect x="24" y="24" height="84" width="84" clip-path="url('#_5b6n64vy-clip-path-corners-square-color-0-0')" fill="rgb(0, 0, 0)"/><rect x="48" y="48" height="36" width="36" clip-path="url('#_5b6n64vy-clip-path-corners-dot-color-0-0')" fill="rgb(0, 0, 0)"/><rect x="432" y="24" height="84" width="84" clip-path="url('#_5b6n64vy-clip-path-corners-square-color-1-0')" fill="rgb(0, 0, 0)"/><rect x="456" y="48" height="36" width="36" clip-path="url('#_5b6n64vy-clip-path-corners-dot-color-1-0')" fill="rgb(0, 0, 0)"/><rect x="24" y="432" height="84" width="84" clip-path="url('#_5b6n64vy-clip-path-corners-square-color-0-1')" fill="rgb(0, 0, 0)"/><rect x="48" y="456" height="36" width="36" clip-path="url('#_5b6n64vy-clip-path-corners-dot-color-0-1')" fill="rgb(0, 0, 0)"/></svg>